<svg xmlns="http://www.w3.org/2000/svg" width="120" height="40" viewBox="0 0 120 40" fill="none">
  <rect width="120" height="40" rx="6" fill="#0F172A"/>
  <path d="M17.6 27H9V13h8.4v3H12v2h5v3h-5v3h5.6v3Z" fill="#38BDF8"/>
  <path d="M25 27c-3.3 0-6-2.4-6-7s2.7-7 6-7c2.4 0 4 .9 5.2 2.7l-3 1.8c-.4-.6-.9-1-1.7-1-1.4 0-2.5 1.4-2.5 3.5s1 3.5 2.5 3.5c.8 0 1.3-.4 1.7-1l3 1.8C29 26.1 27.4 27 25 27Z" fill="#38BDF8"/>
  <path d="M47 13v14h-3.4l-4-7.1V27H36V13h3.5l4 7.1V13H47Z" fill="#F8FAFC"/>
  <text x="58" y="26" fill="#F8FAFC" font-family="Outfit,Arial,sans-serif" font-size="16" font-weight="600">CPT FIT</text>
</svg>

